<svg width="276" height="28" viewBox="0 0 276 28" fill="none" xmlns="http://www.w3.org/2000/svg">
<path d="M16.6833 0.0473633H29.591V5.37521H15.8453C13.3643 5.37521 11.483 5.79993 10.2015 6.64938C8.45628 7.50017 7.12074 9.14214 6.19486 11.5753C6.00768 12.2732 5.90481 12.9884 5.88816 13.7076C5.88816 15.7736 6.71972 17.7164 8.38285 19.5359C9.47144 20.5126 10.4938 21.159 11.45 21.4753C12.4982 21.916 13.9374 22.1365 15.7676 22.1365H29.591V27.4623H16.4156C13.0475 27.4623 10.5529 27.0818 8.93146 26.3207C5.30714 24.847 2.71093 22.4353 1.14284 19.0857C0.377425 17.3953 -0.0112854 15.578 0.000249387 13.7438C0.000249387 9.66269 1.73825 6.1791 5.21427 3.29311C7.48937 1.68665 9.54704 0.738046 11.3873 0.447303C12.329 0.182016 14.0944 0.0487031 16.6833 0.0473633ZM14.1886 11.1191H29.591V16.3886H14.1886V11.1191Z" fill="white"/>
<path d="M48.8723 12.7427V16.7099H33.9258V12.7427H48.8723Z" fill="white"/>
<path d="M50.1275 0.0673828H66.5255C72.4667 0.0673828 76.59 2.4831 78.8953 7.31453C79.4611 8.69941 79.7452 10.1701 79.7333 11.6516C79.7333 14.8672 78.3841 17.6808 75.6856 20.0925C74.0225 21.4618 71.9843 22.3876 69.571 22.8699C68.6367 22.9925 67.6937 23.0496 66.7501 23.0408L56.037 23.1554V27.4542H50.0864V17.739H66.2857C68.3996 17.739 69.9469 17.3713 70.9274 16.6358C72.1816 15.8881 73.0815 14.6822 73.6273 13.0182C73.722 12.6369 73.7762 12.2477 73.7893 11.8566V11.2838C73.7893 9.85016 73.1284 8.45539 71.8065 7.09948C70.4299 5.97269 68.9036 5.40862 67.2275 5.40728H50.1275V0.0673828Z" fill="white"/>
<path d="M82.7959 0.0673828H88.7248V13.0222C88.7248 16.6491 90.2173 19.2866 93.2023 20.9346C94.5112 21.7385 96.2492 22.1405 98.4162 22.1405H112.441V27.4663H98.6168C94.8733 27.4663 91.8812 26.7367 89.6406 25.2777C89.0171 24.9829 88.0797 24.2707 86.8284 23.1413C85.207 21.4424 84.1098 19.7307 83.5367 18.0064C83.0471 16.7001 82.8016 14.829 82.8002 12.3932L82.7959 0.0673828Z" fill="white"/>
<path d="M131.538 0.0292969H145.146V27.4603H139.243V5.37522L133.969 5.39331H132.701C129.756 5.39331 128.12 5.50787 127.793 5.73698C126.01 6.19493 124.44 7.1918 123.331 8.57072C122.023 10.3125 121.368 12.0435 121.368 13.7639C121.368 15.8942 122.253 17.8537 124.027 19.6424C125.213 20.6956 126.236 21.3292 127.093 21.5436C127.957 21.9456 129.436 22.1466 131.53 22.1466H135.634V27.4543H130.718C127.065 27.4543 123.978 26.56 121.456 24.7713C119.631 23.4314 118.411 22.2142 117.797 21.1196C116.27 18.8633 115.506 16.5555 115.507 14.196V13.3921C115.507 10.0961 116.836 7.07145 119.495 4.31809C121.102 2.8684 122.417 1.95262 123.439 1.57077C124.409 1.10517 125.43 0.741189 126.486 0.48551C127.644 0.181368 129.328 0.0292969 131.538 0.0292969Z" fill="white"/>
<path d="M160.138 27.4602V22.9704C157.763 22.3796 155.544 21.3435 153.615 19.9257C151.994 18.5698 150.937 17.441 150.447 16.5393C149.765 15.5202 149.235 14.4194 148.872 13.2674C148.439 11.9999 148.224 10.2749 148.224 8.09231V0.0673828H154.153V8.34151C154.153 10.7532 154.657 12.6116 155.665 13.9165C155.868 14.3346 156.522 15.0004 157.625 15.9142C159.152 17.0824 161.068 17.7211 163.044 17.7211C165.021 17.7211 166.936 17.0824 168.463 15.9142C169.567 14.9991 170.221 14.3332 170.426 13.9165C171.434 12.6102 171.937 10.7519 171.937 8.34151V0.0673828H177.866V8.09431C177.866 10.2769 177.651 12.0019 177.218 13.2694C176.869 14.4258 176.338 15.5282 175.644 16.5413C175.154 17.4416 174.105 18.5705 172.497 19.9277C170.559 21.342 168.333 22.377 165.954 22.9704V27.4602H160.138Z" fill="white"/>
<path d="M197.61 0.0473633H210.511V5.3752H196.767C194.288 5.3752 192.407 5.79993 191.126 6.64938C189.381 7.50017 188.045 9.14214 187.119 11.5753C186.932 12.2732 186.83 12.9884 186.813 13.7076C186.813 15.7736 187.643 17.7164 189.305 19.5359C190.395 20.5126 191.418 21.159 192.372 21.4753C193.422 21.9188 194.862 22.1412 196.692 22.1425H210.515V27.4684H197.34C193.975 27.4684 191.48 27.0878 189.858 26.3268C186.233 24.853 183.636 22.4413 182.069 19.0917C181.302 17.4005 180.912 15.5816 180.924 13.7458C180.924 9.66471 182.662 6.18111 186.137 3.29511C188.416 1.68731 190.475 0.738046 192.316 0.447303C193.257 0.182016 195.021 0.0487031 197.61 0.0473633ZM195.117 11.1191H210.511V16.3886H195.117V11.1191Z" fill="white"/>
<path d="M213.639 0.0473633H232.571C235.917 0.0473633 238.534 0.979218 240.422 2.84292C241.153 3.4385 241.751 4.16243 242.18 4.97325C242.881 6.21423 243.259 7.591 243.283 8.99275V9.77251C243.283 11.7823 242.348 13.7418 240.476 15.6511C239.277 16.7229 238.186 17.4076 237.206 17.705C239.686 20.1676 240.925 23.4207 240.925 27.4643H234.977V27.0463C234.977 24.0531 233.676 21.6749 231.072 19.9117C229.586 18.9349 227.642 18.4466 225.24 18.4466H213.639V13.1549H232.938C235.051 13.1549 236.482 12.1849 237.232 10.2448C237.314 9.84283 237.368 9.52133 237.396 9.25598C237.396 8.17746 236.912 7.20072 235.944 6.32581C235.197 5.74576 234.259 5.42346 233.286 5.41339C233.286 5.36315 233 5.33701 232.422 5.33701H213.631L213.639 0.0473633Z" fill="white"/>
<path d="M255.714 0.0673867H275.564V5.69468H255.528C253.963 5.69468 253.003 6.41082 252.647 7.84309V8.24504C252.647 9.0945 253.158 9.80462 254.18 10.3754C254.492 10.4895 254.825 10.5475 255.161 10.5462H265.237C267.829 10.5462 269.587 10.7934 270.512 11.2878C272.803 12.2404 274.386 13.6928 275.263 15.645C275.738 16.7663 275.988 17.959 276 19.164C276 21.9026 274.623 24.2105 271.87 26.0876C270.996 26.592 270.045 26.9708 269.05 27.211C268.259 27.3758 266.943 27.4582 265.103 27.4582H246.377L246.355 21.8309H266.473C268.163 21.8309 269.243 21.0572 269.712 19.5096L269.753 18.9972C269.753 17.9052 269.178 17.0678 268.026 16.485C267.535 16.2666 266.994 16.1624 266.451 16.1815H255.146C252.189 16.1815 249.721 14.9756 247.746 12.564C246.921 11.3503 246.473 9.94818 246.45 8.51234V7.76874C246.45 4.95509 247.922 2.72963 250.867 1.09235C252.081 0.407704 253.697 0.0660469 255.714 0.0673867Z" fill="white"/>
</svg>
